<svg width="240" height="66" viewBox="0 0 240 66" fill="none" xmlns="http://www.w3.org/2000/svg">
<path d="M83.6 46.48C82.6133 46.48 81.8133 46.1333 81.2 45.44C80.5867 44.72 80.28 43.76 80.28 42.56C80.28 41.3333 80.8267 38.3067 81.92 33.48C83.04 28.6533 83.6 25.5733 83.6 24.24C83.6 22.9067 83.08 22.24 82.04 22.24C80.6 22.24 79.0133 22.88 77.28 24.16C77.0933 25.6 76.5467 28.12 75.64 31.72C74.7333 35.2933 74.12 37.9467 73.8 39.68C73.5067 41.3867 73.36 42.7067 73.36 43.64C73.36 44.5733 73.3733 45.1467 73.4 45.36C72.36 45.8933 70.5067 46.16 67.84 46.16H67.08C67.08 43.92 67.7067 40.1067 68.96 34.72C70.24 29.2267 70.88 25.7733 70.88 24.36C70.88 22.9467 70.3867 22.24 69.4 22.24C67.96 22.24 66.28 22.9333 64.36 24.32C64.0667 25.7867 63.52 28.1733 62.72 31.48C60.9333 39.0533 60.04 43.68 60.04 45.36C59 45.8933 57.16 46.16 54.52 46.16H53.76C53.8667 44.96 54.5733 41.44 55.88 35.6C57.1867 29.7333 58 25.3467 58.32 22.44C58.32 22.0133 58.1733 21.5067 57.88 20.92C57.6133 20.3067 57.3333 19.8133 57.04 19.44L56.64 18.88L56.76 18.28C58.2533 17.8267 60.8267 17.6 64.48 17.6C64.8267 18.24 65 19.0533 65 20.04C65 20.2533 64.9467 20.8133 64.84 21.72C67.9067 18.9733 70.6533 17.6 73.08 17.6C74.1733 17.6 75.0933 17.9733 75.84 18.72C76.5867 19.4667 77.0667 20.44 77.28 21.64C80.4533 18.9467 83.1467 17.6 85.36 17.6C86.7467 17.6 87.8667 18.0533 88.72 18.96C89.5733 19.8667 90 21.1333 90 22.76C90 24.3867 89.4267 27.4933 88.28 32.08C87.16 36.64 86.6 39.8267 86.6 41.64C86.6 42.4133 86.7333 42.8 87 42.8C87.24 42.8 87.8933 42.5333 88.96 42L89.52 41.76L90.32 43.24C89.1733 44.2267 88.0133 45.0133 86.84 45.6C85.6933 46.1867 84.6133 46.48 83.6 46.48ZM61.12 30.4C61.0933 30.4533 61.08 30.52 61.08 30.6L61.12 30.4ZM93.9703 45.48C93.7836 46.0667 93.357 46.36 92.6903 46.36C92.0503 46.36 91.317 46 90.4903 45.28C91.2903 42.9333 92.9836 39.16 95.5703 33.96C98.157 28.7333 99.837 24.8267 100.61 22.24C100.717 21.8133 100.77 21.52 100.77 21.36C100.77 20.96 100.477 20.3467 99.8903 19.52L99.5703 19.08L99.6503 18.56C101.917 17.92 104.424 17.6 107.17 17.6L109.61 17.76C109.904 18.16 110.13 18.7733 110.29 19.6C110.717 21.6267 110.93 26.84 110.93 35.24C110.93 38.4933 111.21 40.7867 111.77 42.12C111.984 42.6267 112.197 42.88 112.41 42.88C112.624 42.88 113.277 42.6133 114.37 42.08L114.89 41.84L115.69 43.28C114.677 44.2667 113.544 45.0533 112.29 45.64C111.064 46.2 109.93 46.48 108.89 46.48C106.197 46.48 104.85 44.3867 104.85 40.2V37.04C104.157 36.88 103.104 36.8 101.69 36.8C100.277 36.8 98.7303 36.9333 97.0503 37.2C95.717 40.2933 94.6903 43.0533 93.9703 45.48ZM104.93 34.32L104.97 29.68C104.97 25.6267 104.797 22.88 104.45 21.44C104.237 21.44 104.077 21.4667 103.97 21.52C103.224 23.5733 102.517 25.32 101.85 26.76C101.21 28.1733 100.504 29.6933 99.7303 31.32C98.9836 32.92 98.517 33.92 98.3303 34.32H104.93ZM135.311 17.6C135.978 17.6 136.805 18.1333 137.791 19.2C136.751 21.0933 134.911 23.52 132.271 26.48C131.391 27.4667 130.085 28.9067 128.351 30.8C128.965 32.5333 129.738 34.6133 130.671 37.04C132.058 40.6933 133.165 42.52 133.991 42.52C134.258 42.52 134.951 42.2133 136.071 41.6L136.631 41.32L137.471 43.08C136.645 43.9067 135.511 44.68 134.071 45.4C132.658 46.12 131.431 46.48 130.391 46.48C129.378 46.48 128.565 46.2133 127.951 45.68C127.338 45.12 126.738 44.08 126.151 42.56C125.565 41.04 124.791 38.8267 123.831 35.92C120.845 39.4133 118.338 42.7333 116.311 45.88C116.045 46.3333 115.631 46.56 115.071 46.56C114.511 46.56 113.805 46 112.951 44.88C114.178 42.7733 116.125 40.2133 118.791 37.2C119.725 36.16 121.058 34.6933 122.791 32.8C120.845 27.04 119.458 23.5733 118.631 22.4C117.831 21.2267 117.018 20.2267 116.191 19.4L116.351 18.8C116.298 18.7733 116.631 18.6667 117.351 18.48C119.378 18 121.445 17.7067 123.551 17.6C124.218 18.1867 124.765 19.2133 125.191 20.68C126.338 24.5467 127.045 26.9067 127.311 27.76C130.725 23.8667 133.085 20.7067 134.391 18.28C134.631 17.8267 134.938 17.6 135.311 17.6ZM141.289 41.08C141.289 41.08 141.383 36.8533 141.569 28.4C141.569 25.04 141.369 22.88 140.969 21.92L139.009 18.88L139.129 18.28C141.023 17.8533 143.743 17.64 147.289 17.64C147.796 18.4133 148.049 19.8533 148.049 21.96C148.049 24.04 147.916 26.8533 147.649 30.4C147.383 33.92 147.249 36.64 147.249 38.56C147.249 40.48 147.703 41.44 148.609 41.44C149.143 41.44 149.916 41.0133 150.929 40.16C151.943 39.28 152.809 38.3333 153.529 37.32C154.116 31.2933 154.409 27.2267 154.409 25.12C154.409 23.0133 154.116 21.0533 153.529 19.24C154.943 18.52 157.263 17.9733 160.489 17.6C160.783 18.56 160.929 19.92 160.929 21.68C160.929 23.4133 160.649 26.44 160.089 30.76C159.556 35.08 159.289 37.9467 159.289 39.36C159.289 40.7467 159.689 41.44 160.489 41.44C161.316 41.44 162.423 40.6667 163.809 39.12C165.196 37.5733 166.463 35.6533 167.609 33.36C168.783 31.04 169.436 28.9467 169.569 27.08L165.329 24.6C165.516 23 165.889 21.6267 166.449 20.48C167.036 19.3067 167.569 18.5333 168.049 18.16L168.769 17.6C170.396 17.6 171.636 18.0267 172.489 18.88C173.369 19.7067 173.809 20.6933 173.809 21.84C173.809 24 173.263 26.52 172.169 29.4C171.103 32.28 169.769 34.9733 168.169 37.48C166.596 39.9867 164.796 42.12 162.769 43.88C160.743 45.6133 158.876 46.48 157.169 46.48C156.156 46.48 155.249 46 154.449 45.04C153.676 44.08 153.276 42.8533 153.249 41.36C152.076 42.96 150.836 44.2133 149.529 45.12C148.223 46.0267 146.969 46.48 145.769 46.48C144.569 46.48 143.516 45.9867 142.609 45C141.729 43.9867 141.289 42.68 141.289 41.08ZM181.413 46.48C179.546 46.48 177.76 45.9467 176.053 44.88C175.2 44.3467 174.493 43.6 173.933 42.64C173.4 41.68 173.133 40.5733 173.133 39.32C173.133 36.9467 173.92 35.0133 175.493 33.52C177.066 32.0267 178.96 31.16 181.173 30.92C179.68 30.52 178.48 29.8267 177.573 28.84C176.693 27.8533 176.253 26.6 176.253 25.08C176.253 22.7867 177.146 20.9733 178.933 19.64C180.746 18.28 182.813 17.6 185.133 17.6C187.453 17.6 189.386 18.0933 190.933 19.08C192.48 20.0667 193.253 21.4 193.253 23.08C193.253 23.6667 193.146 24.24 192.933 24.8C192.746 25.36 192.546 25.76 192.333 26L192.053 26.4C191.2 26.4 190.253 26.2533 189.213 25.96C188.2 25.6667 187.453 25.2933 186.973 24.84L187.453 20.72C187.053 20.32 186.373 20.12 185.413 20.12C184.48 20.12 183.733 20.6133 183.173 21.6C182.64 22.56 182.373 23.6667 182.373 24.92C182.373 26.1733 182.52 27.12 182.813 27.76C183.106 28.4 183.52 28.8933 184.053 29.24C184.88 29.7733 185.853 30.1467 186.973 30.36L186.653 32.56C184.733 32.56 183.066 33.1333 181.653 34.28C180.24 35.4 179.533 36.8933 179.533 38.76C179.533 39.9333 179.906 40.9067 180.653 41.68C181.426 42.4267 182.413 42.8 183.613 42.8C185.8 42.8 188.04 41.6933 190.333 39.48L191.933 40.96C188.84 44.64 185.333 46.48 181.413 46.48ZM211.239 44.08C210.919 44.9067 210.412 45.56 209.719 46.04C209.052 46.52 208.252 46.76 207.319 46.76C206.412 46.76 205.039 46.2 203.199 45.08C201.386 43.96 199.932 43.24 198.839 42.92C198.119 43.88 197.306 44.68 196.399 45.32C195.492 45.96 194.866 46.28 194.519 46.28C194.252 46.28 193.719 45.7067 192.919 44.56C192.119 43.3867 191.719 42.5467 191.719 42.04C191.719 41.7467 192.132 41.3067 192.959 40.72C193.812 40.1333 194.706 39.7333 195.639 39.52C196.306 37.8933 196.999 35.4933 197.719 32.32C198.439 29.12 198.999 25.8267 199.399 22.44C199.399 22.0133 199.252 21.5067 198.959 20.92C198.692 20.3067 198.412 19.8133 198.119 19.44L197.719 18.88L197.839 18.28C199.439 17.8267 202.066 17.6 205.719 17.6C206.066 18.1867 206.239 19.08 206.239 20.28C206.239 21.48 205.892 23.2667 205.199 25.64C204.506 28.0133 203.546 30.8667 202.319 34.2C201.119 37.5067 200.426 39.4667 200.239 40.08C200.346 40.1067 200.679 40.2 201.239 40.36C201.799 40.52 202.159 40.6267 202.319 40.68C202.506 40.7067 202.852 40.7867 203.359 40.92C203.866 41.0267 204.266 41.1067 204.559 41.16C204.852 41.1867 205.239 41.2267 205.719 41.28C206.546 41.4133 207.319 41.48 208.039 41.48C208.786 41.48 209.319 41.2933 209.639 40.92L210.759 38.84L212.079 39.16C212.079 40.8933 211.799 42.5333 211.239 44.08ZM232.059 44.08C231.739 44.9067 231.233 45.56 230.539 46.04C229.873 46.52 229.073 46.76 228.139 46.76C227.233 46.76 225.859 46.2 224.019 45.08C222.206 43.96 220.753 43.24 219.659 42.92C218.939 43.88 218.126 44.68 217.219 45.32C216.313 45.96 215.686 46.28 215.339 46.28C215.073 46.28 214.539 45.7067 213.739 44.56C212.939 43.3867 212.539 42.5467 212.539 42.04C212.539 41.7467 212.953 41.3067 213.779 40.72C214.633 40.1333 215.526 39.7333 216.459 39.52C217.126 37.8933 217.819 35.4933 218.539 32.32C219.259 29.12 219.819 25.8267 220.219 22.44C220.219 22.0133 220.073 21.5067 219.779 20.92C219.513 20.3067 219.233 19.8133 218.939 19.44L218.539 18.88L218.659 18.28C220.259 17.8267 222.886 17.6 226.539 17.6C226.886 18.1867 227.059 19.08 227.059 20.28C227.059 21.48 226.713 23.2667 226.019 25.64C225.326 28.0133 224.366 30.8667 223.139 34.2C221.939 37.5067 221.246 39.4667 221.059 40.08C221.166 40.1067 221.499 40.2 222.059 40.36C222.619 40.52 222.979 40.6267 223.139 40.68C223.326 40.7067 223.673 40.7867 224.179 40.92C224.686 41.0267 225.086 41.1067 225.379 41.16C225.673 41.1867 226.059 41.2267 226.539 41.28C227.366 41.4133 228.139 41.48 228.859 41.48C229.606 41.48 230.139 41.2933 230.459 40.92L231.579 38.84L232.899 39.16C232.899 40.8933 232.619 42.5333 232.059 44.08Z" fill="#E6B800"/>
<path d="M29.3693 13.7377L20.3065 55.6324C19.9595 57.2221 18.7063 58.1386 17.5026 57.6897C16.299 57.2315 15.6051 55.5763 15.945 53.9866L25.0078 12.0938C25.3548 10.5046 26.608 9.58445 27.8116 10.0385C29.0153 10.4926 29.7092 12.1489 29.3693 13.7377ZM36.7187 21.2758L44.6487 31.7492C45.5338 32.9182 45.5338 34.8071 44.6487 35.976L36.7187 46.4495C35.8337 47.6184 34.4034 47.6184 33.5184 46.4495C32.6334 45.2806 32.6334 43.3916 33.5184 42.2227L39.8412 33.8626L33.5184 25.5026C32.6334 24.3337 32.6334 22.4447 33.5184 21.2758C34.4034 20.1069 35.8337 20.1069 36.7187 21.2758ZM11.7959 25.5026L5.46957 33.8626L11.7959 42.2227C12.6809 43.3916 12.6809 45.2806 11.7959 46.4495C10.9108 47.6184 9.4806 47.6184 8.59555 46.4495L0.663571 35.976C-0.22119 34.8071 -0.22119 32.9182 0.663571 31.7492L8.59555 21.2758C9.4806 20.1069 10.9108 20.1069 11.7959 21.2758C12.6809 22.4447 12.6809 24.3337 11.7959 25.5026Z" fill="#E6B800"/>
</svg>
